<svg width="100" height="100" viewBox="0 0 100 100" fill="none" xmlns="http://www.w3.org/2000/svg">
<g filter="url(#filter0_d_0_1)">
<circle cx="50" cy="50" r="29" fill="#18433D"/>
</g>
<path d="M63.5202 54.6047C64.5336 54.6047 65.5055 54.2022 66.2221 53.4856C66.9386 52.769 67.3412 51.7972 67.3412 50.7838C67.3412 49.7704 66.9386 48.7985 66.2221 48.082C65.5055 47.3654 64.5336 46.9628 63.5202 46.9628C62.5069 46.9628 61.535 47.3654 60.8184 48.082C60.1019 48.7985 59.6993 49.7704 59.6993 50.7838C59.6993 51.7972 60.1019 52.769 60.8184 53.4856C61.535 54.2022 62.5069 54.6047 63.5202 54.6047ZM50.7838 54.6047C51.7971 54.6047 52.769 54.2022 53.4856 53.4856C54.2021 52.769 54.6047 51.7972 54.6047 50.7838C54.6047 49.7704 54.2021 48.7985 53.4856 48.082C52.769 47.3654 51.7971 46.9628 50.7838 46.9628C49.7704 46.9628 48.7985 47.3654 48.0819 48.082C47.3654 48.7985 46.9628 49.7704 46.9628 50.7838C46.9628 51.7972 47.3654 52.769 48.0819 53.4856C48.7985 54.2022 49.7704 54.6047 50.7838 54.6047ZM38.0473 54.6047C39.0606 54.6047 40.0325 54.2022 40.7491 53.4856C41.4657 52.769 41.8682 51.7972 41.8682 50.7838C41.8682 49.7704 41.4657 48.7985 40.7491 48.082C40.0325 47.3654 39.0606 46.9628 38.0473 46.9628C37.0339 46.9628 36.062 47.3654 35.3455 48.082C34.6289 48.7985 34.2263 49.7704 34.2263 50.7838C34.2263 51.7972 34.6289 52.769 35.3455 53.4856C36.062 54.2022 37.0339 54.6047 38.0473 54.6047Z" fill="white"/>
<defs>
<filter id="filter0_d_0_1" x="0" y="0" width="100" height="100" filterUnits="userSpaceOnUse" color-interpolation-filters="sRGB">
<feFlood flood-opacity="0" result="BackgroundImageFix"/>
<feColorMatrix in="SourceAlpha" type="matrix" values="0 0 0 0 0 0 0 0 0 0 0 0 0 0 0 0 0 0 127 0" result="hardAlpha"/>
<feMorphology radius="1" operator="dilate" in="SourceAlpha" result="effect1_dropShadow_0_1"/>
<feOffset/>
<feGaussianBlur stdDeviation="10"/>
<feComposite in2="hardAlpha" operator="out"/>
<feColorMatrix type="matrix" values="0 0 0 0 0.469847 0 0 0 0 0.468257 0 0 0 0 0.468257 0 0 0 0.87 0"/>
<feBlend mode="normal" in2="BackgroundImageFix" result="effect1_dropShadow_0_1"/>
<feBlend mode="normal" in="SourceGraphic" in2="effect1_dropShadow_0_1" result="shape"/>
</filter>
</defs>
</svg>
