<svg width="28" height="28" viewBox="0 0 28 28" fill="none" xmlns="http://www.w3.org/2000/svg">
<path d="M1.16669 1.16666H5.83335L8.96002 16.7883C9.0667 17.3255 9.35891 17.8079 9.78549 18.1513C10.2121 18.4947 10.7458 18.6772 11.2934 18.6667H22.6334C23.1809 18.6772 23.7146 18.4947 24.1412 18.1513C24.5678 17.8079 24.86 17.3255 24.9667 16.7883L26.8334 6.99999H7.00002M11.6667 24.5C11.6667 25.1443 11.1444 25.6667 10.5 25.6667C9.85569 25.6667 9.33335 25.1443 9.33335 24.5C9.33335 23.8557 9.85569 23.3333 10.5 23.3333C11.1444 23.3333 11.6667 23.8557 11.6667 24.5ZM24.5 24.5C24.5 25.1443 23.9777 25.6667 23.3334 25.6667C22.689 25.6667 22.1667 25.1443 22.1667 24.5C22.1667 23.8557 22.689 23.3333 23.3334 23.3333C23.9777 23.3333 24.5 23.8557 24.5 24.5Z" stroke="#2C2C2C" stroke-width="2" stroke-linecap="round" stroke-linejoin="round"/>
</svg>
